<?xml version="1.0" encoding="UTF-8" standalone="no"?>
<!DOCTYPE svg PUBLIC "-//W3C//DTD SVG 1.1//EN"
 "http://www.w3.org/Graphics/SVG/1.1/DTD/svg11.dtd">
<!-- Generated by graphviz version 2.26.3 (20100126.1600)
 -->
<!-- Title: G Pages: 1 -->
<svg width="444pt" height="149pt"
 viewBox="0.00 0.00 444.00 149.00" xmlns="http://www.w3.org/2000/svg" xmlns:xlink="http://www.w3.org/1999/xlink">
<g id="graph1" class="graph" transform="scale(1 1) rotate(0) translate(4 145)">
<title>G</title>
<polygon fill="white" stroke="white" points="-4,5 -4,-145 441,-145 441,5 -4,5"/>
<text text-anchor="middle" x="218" y="-9.4" font-family="Times Roman,serif" font-size="14.00">finstrument&#45;functions1.c</text>
<!-- main -->
<g id="node1" class="node"><title>main</title>
<polygon fill="#eecc80" stroke="#eecc80" points="46,-94 16,-94 4,-82 4,-70 16,-58 46,-58 58,-70 58,-82 46,-94"/>
<path fill="#eecc80" stroke="#eecc80" d="M16,-94C10,-94 4,-88 4,-82"/>
<path fill="#eecc80" stroke="#eecc80" d="M4,-70C4,-64 10,-58 16,-58"/>
<path fill="#eecc80" stroke="#eecc80" d="M46,-58C52,-58 58,-64 58,-70"/>
<path fill="#eecc80" stroke="#eecc80" d="M58,-82C58,-88 52,-94 46,-94"/>
<polyline fill="none" stroke="#eecc80" points="46,-94 16,-94 "/>
<path fill="none" stroke="#eecc80" d="M16,-94C10,-94 4,-88 4,-82"/>
<polyline fill="none" stroke="#eecc80" points="4,-82 4,-70 "/>
<path fill="none" stroke="#eecc80" d="M4,-70C4,-64 10,-58 16,-58"/>
<polyline fill="none" stroke="#eecc80" points="16,-58 46,-58 "/>
<path fill="none" stroke="#eecc80" d="M46,-58C52,-58 58,-64 58,-70"/>
<polyline fill="none" stroke="#eecc80" points="58,-70 58,-82 "/>
<path fill="none" stroke="#eecc80" d="M58,-82C58,-88 52,-94 46,-94"/>
<polyline fill="none" stroke="#eecc80" points="50,-98 12,-98 "/>
<path fill="none" stroke="#eecc80" d="M12,-98C6,-98 2.09933e-14,-92 1.71176e-14,-86"/>
<polyline fill="none" stroke="#eecc80" points="1.71176e-14,-86 4.19866e-15,-66 "/>
<path fill="none" stroke="#eecc80" d="M4.19866e-15,-66C3.22974e-16,-60 6,-54 12,-54"/>
<polyline fill="none" stroke="#eecc80" points="12,-54 50,-54 "/>
<path fill="none" stroke="#eecc80" d="M50,-54C56,-54 62,-60 62,-66"/>
<polyline fill="none" stroke="#eecc80" points="62,-66 62,-86 "/>
<path fill="none" stroke="#eecc80" d="M62,-86C62,-92 56,-98 50,-98"/>
<text text-anchor="middle" x="31" y="-72.4" font-family="Vera Sans YuanTi Mono" font-size="14.00">main</text>
</g>
<!-- func1 -->
<g id="node3" class="node"><title>func1</title>
<ellipse fill="#eecc80" stroke="#eecc80" cx="139" cy="-101" rx="36.7696" ry="18.3848"/>
<ellipse fill="none" stroke="#eecc80" cx="139" cy="-101" rx="40.7696" ry="22.3848"/>
<text text-anchor="middle" x="139" y="-97.4" font-family="Vera Sans YuanTi Mono" font-size="14.00">func1</text>
</g>
<!-- main&#45;&gt;func1 -->
<g id="edge2" class="edge"><title>main&#45;&gt;func1</title>
<path fill="none" stroke="#eecc80" d="M62.2381,-83.231C71.3959,-85.3509 81.6227,-87.7182 91.5498,-90.0162"/>
<polygon fill="#eecc80" stroke="#eecc80" points="90.7946,-93.4338 101.326,-92.2792 92.3733,-86.6142 90.7946,-93.4338"/>
</g>
<!-- func3 -->
<g id="node7" class="node"><title>func3</title>
<polygon fill="#ccee80" stroke="#ccee80" points="299.799,-48.2524 299.799,-53.7476 294.884,-61.7001 281.4,-68.4421 270.99,-70.8995 249.01,-70.8995 238.6,-68.4421 225.116,-61.7001 220.201,-53.7476 220.201,-48.2524 225.116,-40.2999 238.6,-33.5579 249.01,-31.1005 270.99,-31.1005 281.4,-33.5579 294.884,-40.2999 299.799,-48.2524"/>
<path fill="#ccee80" stroke="#ccee80" d="M299.799,-53.7476C299.799,-56.4951 297.342,-60.4714 294.884,-61.7001"/>
<path fill="#ccee80" stroke="#ccee80" d="M281.4,-68.4421C278.943,-69.6708 273.738,-70.8995 270.99,-70.8995"/>
<path fill="#ccee80" stroke="#ccee80" d="M249.01,-70.8995C246.262,-70.8995 241.057,-69.6708 238.6,-68.4421"/>
<path fill="#ccee80" stroke="#ccee80" d="M225.116,-61.7001C222.658,-60.4714 220.201,-56.4951 220.201,-53.7476"/>
<path fill="#ccee80" stroke="#ccee80" d="M220.201,-48.2524C220.201,-45.5049 222.658,-41.5286 225.116,-40.2999"/>
<path fill="#ccee80" stroke="#ccee80" d="M238.6,-33.5579C241.057,-32.3292 246.262,-31.1005 249.01,-31.1005"/>
<path fill="#ccee80" stroke="#ccee80" d="M270.99,-31.1005C273.738,-31.1005 278.943,-32.3292 281.4,-33.5579"/>
<path fill="#ccee80" stroke="#ccee80" d="M294.884,-40.2999C297.342,-41.5286 299.799,-45.5049 299.799,-48.2524"/>
<polyline fill="none" stroke="#ccee80" points="299.799,-48.2524 299.799,-53.7476 "/>
<path fill="none" stroke="#ccee80" d="M299.799,-53.7476C299.799,-56.4951 297.342,-60.4714 294.884,-61.7001"/>
<polyline fill="none" stroke="#ccee80" points="294.884,-61.7001 281.4,-68.4421 "/>
<path fill="none" stroke="#ccee80" d="M281.4,-68.4421C278.943,-69.6708 273.738,-70.8995 270.99,-70.8995"/>
<polyline fill="none" stroke="#ccee80" points="270.99,-70.8995 249.01,-70.8995 "/>
<path fill="none" stroke="#ccee80" d="M249.01,-70.8995C246.262,-70.8995 241.057,-69.6708 238.6,-68.4421"/>
<polyline fill="none" stroke="#ccee80" points="238.6,-68.4421 225.116,-61.7001 "/>
<path fill="none" stroke="#ccee80" d="M225.116,-61.7001C222.658,-60.4714 220.201,-56.4951 220.201,-53.7476"/>
<polyline fill="none" stroke="#ccee80" points="220.201,-53.7476 220.201,-48.2524 "/>
<path fill="none" stroke="#ccee80" d="M220.201,-48.2524C220.201,-45.5049 222.658,-41.5286 225.116,-40.2999"/>
<polyline fill="none" stroke="#ccee80" points="225.116,-40.2999 238.6,-33.5579 "/>
<path fill="none" stroke="#ccee80" d="M238.6,-33.5579C241.057,-32.3292 246.262,-31.1005 249.01,-31.1005"/>
<polyline fill="none" stroke="#ccee80" points="249.01,-31.1005 270.99,-31.1005 "/>
<path fill="none" stroke="#ccee80" d="M270.99,-31.1005C273.738,-31.1005 278.943,-32.3292 281.4,-33.5579"/>
<polyline fill="none" stroke="#ccee80" points="281.4,-33.5579 294.884,-40.2999 "/>
<path fill="none" stroke="#ccee80" d="M294.884,-40.2999C297.342,-41.5286 299.799,-45.5049 299.799,-48.2524"/>
<polyline fill="none" stroke="#ccee80" points="303.799,-47.4284 303.799,-54.5716 "/>
<path fill="none" stroke="#ccee80" d="M303.799,-54.5716C303.799,-58.1432 300.605,-63.3121 297.41,-64.9093"/>
<polyline fill="none" stroke="#ccee80" points="297.41,-64.9093 283.819,-71.705 "/>
<path fill="none" stroke="#ccee80" d="M283.819,-71.705C280.624,-73.3023 273.858,-74.8995 270.286,-74.8995"/>
<polyline fill="none" stroke="#ccee80" points="270.286,-74.8995 249.714,-74.8995 "/>
<path fill="none" stroke="#ccee80" d="M249.714,-74.8995C246.142,-74.8995 239.376,-73.3023 236.181,-71.705"/>
<polyline fill="none" stroke="#ccee80" points="236.181,-71.705 222.59,-64.9093 "/>
<path fill="none" stroke="#ccee80" d="M222.59,-64.9093C219.395,-63.3121 216.201,-58.1432 216.201,-54.5716"/>
<polyline fill="none" stroke="#ccee80" points="216.201,-54.5716 216.201,-47.4284 "/>
<path fill="none" stroke="#ccee80" d="M216.201,-47.4284C216.201,-43.8568 219.395,-38.6879 222.59,-37.0907"/>
<polyline fill="none" stroke="#ccee80" points="222.59,-37.0907 236.181,-30.295 "/>
<path fill="none" stroke="#ccee80" d="M236.181,-30.295C239.376,-28.6977 246.142,-27.1005 249.714,-27.1005"/>
<polyline fill="none" stroke="#ccee80" points="249.714,-27.1005 270.286,-27.1005 "/>
<path fill="none" stroke="#ccee80" d="M270.286,-27.1005C273.858,-27.1005 280.624,-28.6977 283.819,-30.295"/>
<polyline fill="none" stroke="#ccee80" points="283.819,-30.295 297.41,-37.0907 "/>
<path fill="none" stroke="#ccee80" d="M297.41,-37.0907C300.605,-38.6879 303.799,-43.8568 303.799,-47.4284"/>
<text text-anchor="middle" x="260" y="-47.4" font-family="Vera Sans YuanTi Mono" font-size="14.00">func3</text>
</g>
<!-- main&#45;&gt;func3 -->
<g id="edge10" class="edge"><title>main&#45;&gt;func3</title>
<path fill="none" stroke="#eecc80" d="M62.3613,-72.5763C99.2952,-68.5442 161.269,-61.7785 205.983,-56.8971"/>
<polygon fill="#eecc80" stroke="#eecc80" points="206.536,-60.3575 216.097,-55.7929 205.777,-53.3989 206.536,-60.3575"/>
</g>
<!-- func2 -->
<g id="node5" class="node"><title>func2</title>
<polygon fill="#ccee80" stroke="#ccee80" points="299.799,-114.252 299.799,-119.748 294.884,-127.7 281.4,-134.442 270.99,-136.9 249.01,-136.9 238.6,-134.442 225.116,-127.7 220.201,-119.748 220.201,-114.252 225.116,-106.3 238.6,-99.5579 249.01,-97.1005 270.99,-97.1005 281.4,-99.5579 294.884,-106.3 299.799,-114.252"/>
<path fill="#ccee80" stroke="#ccee80" d="M299.799,-119.748C299.799,-122.495 297.342,-126.471 294.884,-127.7"/>
<path fill="#ccee80" stroke="#ccee80" d="M281.4,-134.442C278.943,-135.671 273.738,-136.9 270.99,-136.9"/>
<path fill="#ccee80" stroke="#ccee80" d="M249.01,-136.9C246.262,-136.9 241.057,-135.671 238.6,-134.442"/>
<path fill="#ccee80" stroke="#ccee80" d="M225.116,-127.7C222.658,-126.471 220.201,-122.495 220.201,-119.748"/>
<path fill="#ccee80" stroke="#ccee80" d="M220.201,-114.252C220.201,-111.505 222.658,-107.529 225.116,-106.3"/>
<path fill="#ccee80" stroke="#ccee80" d="M238.6,-99.5579C241.057,-98.3292 246.262,-97.1005 249.01,-97.1005"/>
<path fill="#ccee80" stroke="#ccee80" d="M270.99,-97.1005C273.738,-97.1005 278.943,-98.3292 281.4,-99.5579"/>
<path fill="#ccee80" stroke="#ccee80" d="M294.884,-106.3C297.342,-107.529 299.799,-111.505 299.799,-114.252"/>
<polyline fill="none" stroke="#ccee80" points="299.799,-114.252 299.799,-119.748 "/>
<path fill="none" stroke="#ccee80" d="M299.799,-119.748C299.799,-122.495 297.342,-126.471 294.884,-127.7"/>
<polyline fill="none" stroke="#ccee80" points="294.884,-127.7 281.4,-134.442 "/>
<path fill="none" stroke="#ccee80" d="M281.4,-134.442C278.943,-135.671 273.738,-136.9 270.99,-136.9"/>
<polyline fill="none" stroke="#ccee80" points="270.99,-136.9 249.01,-136.9 "/>
<path fill="none" stroke="#ccee80" d="M249.01,-136.9C246.262,-136.9 241.057,-135.671 238.6,-134.442"/>
<polyline fill="none" stroke="#ccee80" points="238.6,-134.442 225.116,-127.7 "/>
<path fill="none" stroke="#ccee80" d="M225.116,-127.7C222.658,-126.471 220.201,-122.495 220.201,-119.748"/>
<polyline fill="none" stroke="#ccee80" points="220.201,-119.748 220.201,-114.252 "/>
<path fill="none" stroke="#ccee80" d="M220.201,-114.252C220.201,-111.505 222.658,-107.529 225.116,-106.3"/>
<polyline fill="none" stroke="#ccee80" points="225.116,-106.3 238.6,-99.5579 "/>
<path fill="none" stroke="#ccee80" d="M238.6,-99.5579C241.057,-98.3292 246.262,-97.1005 249.01,-97.1005"/>
<polyline fill="none" stroke="#ccee80" points="249.01,-97.1005 270.99,-97.1005 "/>
<path fill="none" stroke="#ccee80" d="M270.99,-97.1005C273.738,-97.1005 278.943,-98.3292 281.4,-99.5579"/>
<polyline fill="none" stroke="#ccee80" points="281.4,-99.5579 294.884,-106.3 "/>
<path fill="none" stroke="#ccee80" d="M294.884,-106.3C297.342,-107.529 299.799,-111.505 299.799,-114.252"/>
<polyline fill="none" stroke="#ccee80" points="303.799,-113.428 303.799,-120.572 "/>
<path fill="none" stroke="#ccee80" d="M303.799,-120.572C303.799,-124.143 300.605,-129.312 297.41,-130.909"/>
<polyline fill="none" stroke="#ccee80" points="297.41,-130.909 283.819,-137.705 "/>
<path fill="none" stroke="#ccee80" d="M283.819,-137.705C280.624,-139.302 273.858,-140.9 270.286,-140.9"/>
<polyline fill="none" stroke="#ccee80" points="270.286,-140.9 249.714,-140.9 "/>
<path fill="none" stroke="#ccee80" d="M249.714,-140.9C246.142,-140.9 239.376,-139.302 236.181,-137.705"/>
<polyline fill="none" stroke="#ccee80" points="236.181,-137.705 222.59,-130.909 "/>
<path fill="none" stroke="#ccee80" d="M222.59,-130.909C219.395,-129.312 216.201,-124.143 216.201,-120.572"/>
<polyline fill="none" stroke="#ccee80" points="216.201,-120.572 216.201,-113.428 "/>
<path fill="none" stroke="#ccee80" d="M216.201,-113.428C216.201,-109.857 219.395,-104.688 222.59,-103.091"/>
<polyline fill="none" stroke="#ccee80" points="222.59,-103.091 236.181,-96.295 "/>
<path fill="none" stroke="#ccee80" d="M236.181,-96.295C239.376,-94.6977 246.142,-93.1005 249.714,-93.1005"/>
<polyline fill="none" stroke="#ccee80" points="249.714,-93.1005 270.286,-93.1005 "/>
<path fill="none" stroke="#ccee80" d="M270.286,-93.1005C273.858,-93.1005 280.624,-94.6977 283.819,-96.295"/>
<polyline fill="none" stroke="#ccee80" points="283.819,-96.295 297.41,-103.091 "/>
<path fill="none" stroke="#ccee80" d="M297.41,-103.091C300.605,-104.688 303.799,-109.857 303.799,-113.428"/>
<text text-anchor="middle" x="260" y="-113.4" font-family="Vera Sans YuanTi Mono" font-size="14.00">func2</text>
</g>
<!-- func1&#45;&gt;func2 -->
<g id="edge4" class="edge"><title>func1&#45;&gt;func2</title>
<path fill="none" stroke="#ccee80" d="M178.955,-106.283C187.558,-107.421 196.789,-108.642 205.83,-109.837"/>
<polygon fill="#ccee80" stroke="#ccee80" points="205.54,-113.329 215.912,-111.17 206.458,-106.389 205.54,-113.329"/>
</g>
<!-- func1&#45;&gt;func3 -->
<g id="edge6" class="edge"><title>func1&#45;&gt;func3</title>
<path fill="none" stroke="#ccee80" d="M171.744,-87.4693C184.937,-82.0176 200.379,-75.6369 214.624,-69.7503"/>
<polygon fill="#ccee80" stroke="#ccee80" points="216.348,-72.8251 224.254,-65.7713 213.675,-66.3556 216.348,-72.8251"/>
</g>
<!-- func4 -->
<g id="node9" class="node"><title>func4</title>
<polygon fill="#80ccee" stroke="#80ccee" points="423.382,-58.0763 416.305,-65.1526 399.222,-72.2289 376.778,-72.2289 359.695,-65.1526 352.618,-58.0763 352.618,-43.9237 359.695,-36.8474 376.778,-29.7711 399.222,-29.7711 416.305,-36.8474 423.382,-43.9237 423.382,-58.0763"/>
<path fill="#80ccee" stroke="#80ccee" d="M416.305,-65.1526C412.767,-68.6908 404.225,-72.2289 399.222,-72.2289"/>
<path fill="#80ccee" stroke="#80ccee" d="M376.778,-72.2289C371.775,-72.2289 363.233,-68.6908 359.695,-65.1526"/>
<path fill="#80ccee" stroke="#80ccee" d="M352.618,-58.0763C349.08,-54.5382 349.08,-47.4618 352.618,-43.9237"/>
<path fill="#80ccee" stroke="#80ccee" d="M359.695,-36.8474C363.233,-33.3092 371.775,-29.7711 376.778,-29.7711"/>
<path fill="#80ccee" stroke="#80ccee" d="M399.222,-29.7711C404.225,-29.7711 412.767,-33.3092 416.305,-36.8474"/>
<path fill="#80ccee" stroke="#80ccee" d="M423.382,-43.9237C426.92,-47.4618 426.92,-54.5382 423.382,-58.0763"/>
<polyline fill="none" stroke="#80ccee" points="423.382,-58.0763 416.305,-65.1526 "/>
<path fill="none" stroke="#80ccee" d="M416.305,-65.1526C412.767,-68.6908 404.225,-72.2289 399.222,-72.2289"/>
<polyline fill="none" stroke="#80ccee" points="399.222,-72.2289 376.778,-72.2289 "/>
<path fill="none" stroke="#80ccee" d="M376.778,-72.2289C371.775,-72.2289 363.233,-68.6908 359.695,-65.1526"/>
<polyline fill="none" stroke="#80ccee" points="359.695,-65.1526 352.618,-58.0763 "/>
<path fill="none" stroke="#80ccee" d="M352.618,-58.0763C349.08,-54.5382 349.08,-47.4618 352.618,-43.9237"/>
<polyline fill="none" stroke="#80ccee" points="352.618,-43.9237 359.695,-36.8474 "/>
<path fill="none" stroke="#80ccee" d="M359.695,-36.8474C363.233,-33.3092 371.775,-29.7711 376.778,-29.7711"/>
<polyline fill="none" stroke="#80ccee" points="376.778,-29.7711 399.222,-29.7711 "/>
<path fill="none" stroke="#80ccee" d="M399.222,-29.7711C404.225,-29.7711 412.767,-33.3092 416.305,-36.8474"/>
<polyline fill="none" stroke="#80ccee" points="416.305,-36.8474 423.382,-43.9237 "/>
<path fill="none" stroke="#80ccee" d="M423.382,-43.9237C426.92,-47.4618 426.92,-54.5382 423.382,-58.0763"/>
<polyline fill="none" stroke="#80ccee" points="427.705,-59.4096 419.295,-67.8193 "/>
<path fill="none" stroke="#80ccee" d="M419.295,-67.8193C415.091,-72.0241 404.939,-76.2289 398.993,-76.2289"/>
<polyline fill="none" stroke="#80ccee" points="398.993,-76.2289 377.007,-76.2289 "/>
<path fill="none" stroke="#80ccee" d="M377.007,-76.2289C371.061,-76.2289 360.909,-72.0241 356.705,-67.8193"/>
<polyline fill="none" stroke="#80ccee" points="356.705,-67.8193 348.295,-59.4096 "/>
<path fill="none" stroke="#80ccee" d="M348.295,-59.4096C344.09,-55.2048 344.09,-46.7952 348.295,-42.5904"/>
<polyline fill="none" stroke="#80ccee" points="348.295,-42.5904 356.705,-34.1807 "/>
<path fill="none" stroke="#80ccee" d="M356.705,-34.1807C360.909,-29.9759 371.061,-25.7711 377.007,-25.7711"/>
<polyline fill="none" stroke="#80ccee" points="377.007,-25.7711 398.993,-25.7711 "/>
<path fill="none" stroke="#80ccee" d="M398.993,-25.7711C404.939,-25.7711 415.091,-29.9759 419.295,-34.1807"/>
<polyline fill="none" stroke="#80ccee" points="419.295,-34.1807 427.705,-42.5904 "/>
<path fill="none" stroke="#80ccee" d="M427.705,-42.5904C431.91,-46.7952 431.91,-55.2048 427.705,-59.4096"/>
<text text-anchor="middle" x="388" y="-47.4" font-family="Vera Sans YuanTi Mono" font-size="14.00">func4</text>
</g>
<!-- func3&#45;&gt;func4 -->
<g id="edge8" class="edge"><title>func3&#45;&gt;func4</title>
<path fill="none" stroke="#80ccee" d="M304.05,-51C312.367,-51 321.182,-51 329.854,-51"/>
<polygon fill="#80ccee" stroke="#80ccee" points="329.928,-54.5001 339.928,-51 329.928,-47.5001 329.928,-54.5001"/>
</g>
</g>
</svg>
